<svg xmlns="http://www.w3.org/2000/svg" viewBox="0 0 1024 1024"><path fill="#073746" d="M1024 897c0 70-57 127-127 127H127C57 1024 0 967 0 897V127C0 57 57 0 127 0h770c70 0 127 57 127 127v770z"/><path fill="#EEEEE7" d="M966.6 902.3L510.2 121.7 57.4 902.3h69.8l19-33.7c34.7 22.5 76 33.7 123.8 33.7 43.2 0 77.6-7.2 103-21.6 25.6-14.4 45-34.6 58.3-60.7 13.3-26 22-57.5 26.2-94.3 4.2-36.8 6.2-77.7 6.2-122.6v-1.4h93.6v300.7h409.3zM405.6 603c0 39.4-1.5 74.5-4.3 105.2-2.8 30.8-9 56.7-18.3 77.7-9.4 21-23 37-41 47.7-18 10.8-42 16.2-72 16.2-23.8 0-45.3-3-64.4-9.2-13.5-4.3-25.3-9.2-35.3-14.6l127-224.4h108.2v1.3zm0-52H326l79.5-137v137zM616 419l76 131.8h-76V419zm0 182.5h104.6l145 248.6H616.2V601.6zM463.7 551V313.5l46-79.4 47.6 82.8V551h-93.6z"/></svg>